<svg width="21" height="21" viewBox="0 0 21 21" fill="none" xmlns="http://www.w3.org/2000/svg">
<path d="M10.0176 1.65039C8.88094 1.65295 7.77171 1.99982 6.83609 2.64528C5.90046 3.29075 5.18233 4.20453 4.77633 5.26622C4.37033 6.32791 4.29551 7.4877 4.56172 8.59276C4.82793 9.69782 5.42268 10.6963 6.26761 11.4566V19.1504L10.0176 16.6504L13.7676 19.1504V11.4566C14.6125 10.6963 15.2073 9.69782 15.4735 8.59276C15.7397 7.4877 15.6649 6.32791 15.2589 5.26622C14.8529 4.20453 14.1348 3.29075 13.1991 2.64528C12.2635 1.99982 11.1543 1.65295 10.0176 1.65039ZM12.5176 16.8129L10.7114 15.6129L10.0176 15.1504L9.32386 15.6129L7.51761 16.8129V12.3066C8.29292 12.6978 9.14921 12.9016 10.0176 12.9016C10.886 12.9016 11.7423 12.6978 12.5176 12.3066V16.8129ZM13.0739 10.4004C12.351 11.1061 11.4063 11.5399 10.4 11.6282C9.39372 11.7164 8.38787 11.4538 7.55322 10.8848C6.71856 10.3158 6.10653 9.47545 5.82101 8.50648C5.53549 7.53751 5.59408 6.49959 5.98682 5.56891C6.37957 4.63822 7.08228 3.87212 7.97567 3.40065C8.86906 2.92918 9.89807 2.78138 10.888 2.98236C11.878 3.18334 12.7679 3.7207 13.4067 4.50323C14.0455 5.28575 14.3939 6.26523 14.3926 7.27539C14.3919 7.85784 14.2749 8.43427 14.0484 8.97089C13.8219 9.50751 13.4906 9.99351 13.0739 10.4004Z" fill="#4DD091"/>
<path fill-rule="evenodd" clip-rule="evenodd" d="M10.0174 9.15714L11.4007 9.99381C11.654 10.1471 11.964 9.92048 11.8974 9.63381L11.5307 8.06048L12.754 7.00048C12.9774 6.80714 12.8574 6.44048 12.564 6.41714L10.954 6.28048L10.324 4.79381C10.2107 4.52381 9.82402 4.52381 9.71069 4.79381L9.08069 6.27714L7.47069 6.41381C7.17736 6.43714 7.05736 6.80381 7.28069 6.99714L8.50402 8.05714L8.13736 9.63048C8.07069 9.91714 8.38069 10.1438 8.63402 9.99048L10.0174 9.15714Z" fill="#4DD091"/>
</svg>
