<svg width="24" height="24" viewBox="0 0 24 24" fill="none" xmlns="http://www.w3.org/2000/svg">
<path d="M12 24C18.6274 24 24 18.6274 24 12C24 5.37258 18.6274 0 12 0C5.37258 0 0 5.37258 0 12C0 18.6274 5.37258 24 12 24Z" fill="#FFDC44"/>
<path d="M12 21.84C17.4345 21.84 21.84 17.4345 21.84 12C21.84 6.56555 17.4345 2.16003 12 2.16003C6.56552 2.16003 2.16 6.56555 2.16 12C2.16 17.4345 6.56552 21.84 12 21.84Z" fill="#FCB439"/>
<path d="M12 21.36C17.1694 21.36 21.36 17.1694 21.36 12C21.36 6.83063 17.1694 2.64001 12 2.64001C6.83061 2.64001 2.64 6.83063 2.64 12C2.64 17.1694 6.83061 21.36 12 21.36Z" fill="#FFDC44"/>
<path d="M9.53872 9.18535L7.25272 14.1624H6.54172L9.47572 7.95235C9.49972 7.90435 9.53272 7.88035 9.57472 7.88035C9.61672 7.88035 9.64972 7.90435 9.67372 7.95235L12.5987 14.1624H11.8427L9.53872 9.18535ZM8.08072 12.7494L9.53872 9.57235L11.0057 12.7494H8.08072ZM10.8797 14.1624L10.5647 13.4514H8.46772L8.17072 14.1624H7.43272L7.99972 12.9114H11.0867L11.6627 14.1624H10.8797ZM9.50272 10.9944L8.98972 12.2094H10.0247L9.50272 10.9944ZM13.1627 14.1624V8.04235H13.9007V13.5594H17.4017V14.1624H13.1627ZM17.4017 12.7854V13.3974H14.0627V8.04235H14.8007V12.7854H17.4017Z" fill="#FCB439"/>
</svg>
