<svg width="40" height="41" viewBox="0 0 40 41" fill="none" xmlns="http://www.w3.org/2000/svg">
<g clip-path="url(#clip0)">
<path d="M19.9999 0.991699C9.39385 0.991699 0.797852 9.5877 0.797852 20.1917C0.797589 22.7134 1.29408 25.2105 2.25898 27.5403C3.22388 29.8701 4.63828 31.987 6.4214 33.7701C8.20452 35.5533 10.3214 36.9677 12.6513 37.9326C14.9811 38.8975 17.4781 39.394 19.9999 39.3937C30.6019 39.3937 39.1999 30.7977 39.1999 20.1917C39.1999 9.5877 30.6019 0.991699 19.9999 0.991699ZM19.9979 35.3917C18.0018 35.3917 16.0252 34.9985 14.1811 34.2347C12.3369 33.4708 10.6613 32.3512 9.24983 30.9397C7.83838 29.5283 6.71875 27.8526 5.95488 26.0085C5.19101 24.1643 4.79785 22.1878 4.79785 20.1917C4.79785 18.1956 5.19101 16.2191 5.95488 14.3749C6.71875 12.5308 7.83838 10.8551 9.24983 9.44368C10.6613 8.03223 12.3369 6.9126 14.1811 6.14873C16.0252 5.38486 18.0018 4.9917 19.9979 4.9917C21.9939 4.9917 23.9705 5.38486 25.8146 6.14873C27.6588 6.9126 29.3344 8.03223 30.7459 9.44368C32.1573 10.8551 33.277 12.5308 34.0408 14.3749C34.8047 16.2191 35.1979 18.1956 35.1979 20.1917C35.1979 22.1878 34.8047 24.1643 34.0408 26.0085C33.277 27.8526 32.1573 29.5283 30.7459 30.9397C29.3344 32.3512 27.6588 33.4708 25.8146 34.2347C23.9705 34.9985 21.9939 35.3917 19.9979 35.3917ZM19.9999 16.1917H11.9999V24.1917H19.9999V29.1917L28.9999 20.1917L19.9999 11.1917V16.1917Z" fill="#0492C2"/>
</g>
<defs>
<clipPath id="clip0">
<rect width="40" height="40" fill="white" transform="translate(0 0.191895)"/>
</clipPath>
</defs>
</svg>
