<svg height="512pt" viewBox="0 0 512 512" width="512pt" xmlns="http://www.w3.org/2000/svg"><path d="m256 0c-140.699219 0-256 115.300781-256 256s115.300781 256 256 256 256-115.300781 256-256-115.300781-256-256-256zm0 0" fill="#ffda2d"/><path d="m256 0c-140.699219 0-256 115.300781-256 256s115.300781 256 256 256 256-115.300781 256-256-115.300781-256-256-256zm0 0" fill="#ffda2d"/><path d="m512 256c0 140.699219-115.300781 256-256 256v-512c140.699219 0 256 115.300781 256 256zm0 0" fill="#fdbf00"/><path d="m196 241c-24.8125 0-45-20.1875-45-45s20.1875-45 45-45 45 20.1875 45 45-20.1875 45-45 45zm0 0" fill="#895d3c"/><path d="m196 211c-8.277344 0-15-6.738281-15-15s6.722656-15 15-15 15 6.738281 15 15-6.722656 15-15 15zm0 0" fill="#fff5f5"/><path d="m316 241c-24.8125 0-45-20.1875-45-45s20.1875-45 45-45 45 20.1875 45 45-20.1875 45-45 45zm0 0" fill="#714c2f"/><path d="m316 211c-8.277344 0-15-6.738281-15-15s6.722656-15 15-15 15 6.738281 15 15-6.722656 15-15 15zm0 0" fill="#efe2dd"/><path d="m125.394531 146.605469c-5.859375-5.859375-5.859375-15.351563 0-21.210938l30-30c5.859375-5.859375 15.351563-5.859375 21.210938 0s5.859375 15.351563 0 21.210938l-30 30c-5.859375 5.859375-15.351563 5.859375-21.210938 0zm0 0" fill="#895d3c"/><path d="m376 151c-3.839844 0-7.675781-1.464844-10.605469-4.394531l-30-30c-5.859375-5.859375-5.859375-15.351563 0-21.210938s15.351563-5.859375 21.210938 0l30 30c5.859375 5.859375 5.859375 15.351563 0 21.210938-2.929688 2.929687-6.765625 4.394531-10.605469 4.394531zm0 0" fill="#714c2f"/><path d="m419.199219 340.300781c-9.597657 14.398438-25.199219 22.800781-42.597657 22.800781-17.101562 0-32.703124-8.402343-42.300781-22.800781-8.101562-11.699219-27-11.699219-35.101562 0-9.597657 14.398438-25.199219 22.800781-42.597657 22.800781-.300781 0-.300781 0-.601562 0-16.800781-.300781-32.097656-8.703124-41.699219-22.800781-8.097656-11.699219-27-11.699219-35.097656 0-9.601563 14.398438-25.203125 22.800781-42.601563 22.800781-17.097656 0-32.699218-8.402343-42.300781-22.800781-4.496093-6.902343-2.699219-16.203125 4.203125-20.699219 6.898438-4.800781 16.195313-2.703124 20.699219 4.199219 8.101563 12 27 12 35.097656 0 9.601563-14.402343 25.203125-22.800781 42.300781-22.800781 17.398438 0 33 8.398438 42.597657 22.800781 4.203125 5.699219 10.5 8.699219 16.800781 9 7.199219.300781 14.101562-2.703125 18.300781-9 9.601563-14.402343 25.203125-22.800781 42.300781-22.800781 17.398438 0 33 8.398438 42.597657 22.800781 8.101562 12 27.003906 12 35.101562 0 4.5-6.902343 13.800781-9 20.699219-4.199219 6.902344 4.496094 8.699219 13.796876 4.199219 20.699219zm0 0" fill="#ff637b"/><path d="m419.199219 340.300781c-9.597657 14.398438-25.199219 22.800781-42.597657 22.800781-17.101562 0-32.703124-8.402343-42.300781-22.800781-8.101562-11.699219-27-11.699219-35.101562 0-9.597657 14.398438-25.199219 22.800781-42.597657 22.800781-.300781 0-.300781 0-.601562 0v-30.300781c7.199219.300781 14.101562-2.703125 18.300781-9 9.601563-14.402343 25.203125-22.800781 42.300781-22.800781 17.398438 0 33 8.398438 42.597657 22.800781 8.101562 12 27.003906 12 35.101562 0 4.5-6.902343 13.800781-9 20.699219-4.199219 6.902344 4.496094 8.699219 13.796876 4.199219 20.699219zm0 0" fill="#e63950"/></svg>