<svg width="25" height="24" viewBox="0 0 25 24" fill="none" xmlns="http://www.w3.org/2000/svg">
<path fill-rule="evenodd" clip-rule="evenodd" d="M12.5126 2C6.99258 2 2.52258 6.48 2.52258 12C2.52258 17.52 6.99258 22 12.5126 22C18.0426 22 22.5226 17.52 22.5226 12C22.5226 6.48 18.0426 2 12.5126 2ZM15.7426 17.39L12.5226 15.45L9.30258 17.39C8.92258 17.62 8.45258 17.28 8.55258 16.85L9.40258 13.19L6.57258 10.74C6.24258 10.45 6.42258 9.9 6.86258 9.86L10.6026 9.54L12.0626 6.09C12.2326 5.68 12.8126 5.68 12.9826 6.09L14.4426 9.53L18.1826 9.85C18.6226 9.89 18.8026 10.44 18.4626 10.73L15.6326 13.18L16.4826 16.85C16.5826 17.28 16.1226 17.62 15.7426 17.39Z" fill="#0492C2"/>
</svg>
