<svg width="25" height="24" viewBox="0 0 25 24" fill="none" xmlns="http://www.w3.org/2000/svg">
<path d="M20.3976 3H4.64758C3.47558 3 2.52258 3.897 2.52258 5V19C2.52258 20.103 3.47558 21 4.64758 21H20.3976C21.5696 21 22.5226 20.103 22.5226 19V5C22.5226 3.897 21.5696 3 20.3976 3ZM20.3976 19H4.64758C4.59058 19 4.55158 18.984 4.53458 18.984C4.52758 18.984 4.52358 18.986 4.52258 18.992L4.51058 5.046C4.51758 5.036 4.56258 5 4.64758 5H20.3976C20.4766 5.001 20.5196 5.028 20.5226 5.008L20.5346 18.954C20.5276 18.964 20.4826 19 20.3976 19Z" fill="#0492C2"/>
<path d="M6.52258 7H12.5226V13H6.52258V7ZM13.5226 15H6.52258V17H18.5226V15H14.5226H13.5226ZM14.5226 11H18.5226V13H14.5226V11ZM14.5226 7H18.5226V9H14.5226V7Z" fill="#0492C2"/>
</svg>
