<svg width="25" height="24" viewBox="0 0 25 24" fill="none" xmlns="http://www.w3.org/2000/svg">
<path fill-rule="evenodd" clip-rule="evenodd" d="M11.3126 16.29C11.7026 16.68 12.3326 16.68 12.7226 16.29L16.3126 12.7C16.7026 12.31 16.7026 11.68 16.3126 11.29L12.7226 7.7C12.3326 7.31 11.7026 7.31 11.3126 7.7C10.9226 8.09 10.9226 8.72 11.3126 9.11L13.1926 11H4.52258C3.97258 11 3.52258 11.45 3.52258 12C3.52258 12.55 3.97258 13 4.52258 13H13.1926L11.3126 14.88C10.9226 15.27 10.9326 15.91 11.3126 16.29ZM19.5226 3H5.52258C4.41258 3 3.52258 3.9 3.52258 5V8C3.52258 8.55 3.97258 9 4.52258 9C5.07258 9 5.52258 8.55 5.52258 8V6C5.52258 5.45 5.97258 5 6.52258 5H18.5226C19.0726 5 19.5226 5.45 19.5226 6V18C19.5226 18.55 19.0726 19 18.5226 19H6.52258C5.97258 19 5.52258 18.55 5.52258 18V16C5.52258 15.45 5.07258 15 4.52258 15C3.97258 15 3.52258 15.45 3.52258 16V19C3.52258 20.1 4.42258 21 5.52258 21H19.5226C20.6226 21 21.5226 20.1 21.5226 19V5C21.5226 3.9 20.6226 3 19.5226 3Z" fill="#0492C2"/>
</svg>
