<svg width="25" height="24" viewBox="0 0 25 24" fill="none" xmlns="http://www.w3.org/2000/svg">
<path fill-rule="evenodd" clip-rule="evenodd" d="M20.5226 6H18.3426C18.4526 5.69 18.5226 5.35 18.5226 5C18.5226 3.34 17.1826 2 15.5226 2C14.4726 2 13.5626 2.54 13.0226 3.35L12.5226 4.02L12.0226 3.34C11.4826 2.54 10.5726 2 9.52258 2C7.86258 2 6.52258 3.34 6.52258 5C6.52258 5.35 6.59258 5.69 6.70258 6H4.52258C3.41258 6 2.53258 6.89 2.53258 8L2.52258 19C2.52258 20.11 3.41258 21 4.52258 21H20.5226C21.6326 21 22.5226 20.11 22.5226 19V8C22.5226 6.89 21.6326 6 20.5226 6ZM15.5226 4C16.0726 4 16.5226 4.45 16.5226 5C16.5226 5.55 16.0726 6 15.5226 6C14.9726 6 14.5226 5.55 14.5226 5C14.5226 4.45 14.9726 4 15.5226 4ZM9.52258 4C10.0726 4 10.5226 4.45 10.5226 5C10.5226 5.55 10.0726 6 9.52258 6C8.97258 6 8.52258 5.55 8.52258 5C8.52258 4.45 8.97258 4 9.52258 4ZM20.5226 19H4.52258V17H20.5226V19ZM20.5226 14H4.52258V9C4.52258 8.45 4.97258 8 5.52258 8H9.60258L8.12258 10.02C7.79258 10.47 7.89258 11.1 8.34258 11.42C8.78258 11.74 9.41258 11.64 9.73258 11.2L12.5226 7.4L15.3126 11.2C15.6326 11.64 16.2626 11.74 16.7026 11.42C17.1526 11.1 17.2526 10.47 16.9226 10.02L15.4426 8H19.5226C20.0726 8 20.5226 8.45 20.5226 9V14Z" fill="#0492C2"/>
</svg>
