<svg width="25" height="24" viewBox="0 0 25 24" fill="none" xmlns="http://www.w3.org/2000/svg">
<g clip-path="url(#clip0)">
<path fill-rule="evenodd" clip-rule="evenodd" d="M12.6637 2.531C12.3217 2.189 11.8627 2 11.3857 2H4.93269C3.94269 2 3.13269 2.81 3.13269 3.8V18.2C3.13269 19.19 3.93369 20 4.92369 20H15.7327C16.7227 20 17.5327 19.19 17.5327 18.2V8.147C17.5327 7.67 17.3437 7.211 17.0017 6.878L12.6637 2.531ZM13.0327 16.4H7.63269C7.13769 16.4 6.73269 15.995 6.73269 15.5C6.73269 15.005 7.13769 14.6 7.63269 14.6H13.0327C13.5277 14.6 13.9327 15.005 13.9327 15.5C13.9327 15.995 13.5277 16.4 13.0327 16.4ZM13.0327 12.8H7.63269C7.13769 12.8 6.73269 12.395 6.73269 11.9C6.73269 11.405 7.13769 11 7.63269 11H13.0327C13.5277 11 13.9327 11.405 13.9327 11.9C13.9327 12.395 13.5277 12.8 13.0327 12.8ZM11.2327 7.4V3.35L16.1827 8.3H12.1327C11.6377 8.3 11.2327 7.895 11.2327 7.4Z" fill="#0492C2"/>
<path fill-rule="evenodd" clip-rule="evenodd" d="M19.5027 17.1133L20.5775 18.1881C20.6765 18.2871 20.832 18.2871 20.931 18.1881L22.0058 17.1133C22.0518 17.0673 22.0801 17.0037 22.0765 16.9365L22.0801 9.21841L19.4284 9.21842L19.4284 16.933C19.4284 17.0037 19.4532 17.0638 19.5027 17.1133ZM22.0801 7.1678C22.0801 6.89203 21.8573 6.66929 21.5816 6.66929L19.9269 6.66929C19.6512 6.66929 19.4284 6.89203 19.4284 7.1678L19.4284 8.46181L22.0801 8.46181L22.0801 7.1678Z" fill="#0492C2"/>
</g>
<defs>
<clipPath id="clip0">
<rect width="24" height="24" fill="white" transform="translate(0.522583)"/>
</clipPath>
</defs>
</svg>
