<svg width="25" height="24" viewBox="0 0 25 24" fill="none" xmlns="http://www.w3.org/2000/svg">
<g clip-path="url(#clip0)">
<path d="M14.7171 19.3391L8.91809 15.99L9.49259 14.9958L15.2905 18.345L14.7171 19.3391Z" fill="#0492C2"/>
<path d="M20.6342 21.246C22.309 19.6642 23.3702 17.442 23.3702 14.9617C23.3702 11.9059 21.7652 9.14962 19.2696 7.60162L22.0656 2.76187L21.6265 2.50874L22.3161 1.30949L20.5082 0.265869L19.8171 1.46324L19.3547 1.19624L12.481 13.1032L13.0814 13.4497L12.229 14.9242L13.7395 15.7965L14.5922 14.3212L15.1919 14.6677L18.0824 9.66187C18.9735 10.2298 19.7072 11.0131 20.2157 11.9395C20.7243 12.8658 20.9912 13.9054 20.992 14.9621C20.992 18.4271 18.1712 21.2464 14.7059 21.2464H9.64111V23.6257H23.8979V21.2464H20.635L20.6342 21.246Z" fill="#0492C2"/>
<path d="M7.97871 2.9493V1.06042H8.21121L8.20783 0.607422H6.08946L6.09283 1.06042H6.34258V2.9493H4.76196V1.06042H4.99371L4.99108 0.607422H2.87083L2.87496 1.06042H3.12471V2.9493H0.803833V12.4109H10.2797V2.9493H7.97946H7.97871ZM9.47721 11.6099H1.60521V3.7503H3.12433V9.7953C3.12433 10.2528 3.49821 10.6244 3.94933 10.6244C4.40121 10.6225 4.76158 10.252 4.76158 9.7953V3.7503H6.34221V9.7953C6.34221 10.2528 6.71646 10.6244 7.16758 10.6244C7.61946 10.6225 7.97983 10.252 7.97908 9.7953V3.7503H9.47721V11.6099Z" fill="#0492C2"/>
</g>
<defs>
<clipPath id="clip0">
<rect width="24" height="24" fill="white" transform="translate(0.522583)"/>
</clipPath>
</defs>
</svg>
