<svg width="25" height="24" viewBox="0 0 25 24" fill="none" xmlns="http://www.w3.org/2000/svg">
<path fill-rule="evenodd" clip-rule="evenodd" d="M19.9525 12.98C19.9925 12.66 20.0225 12.34 20.0225 12C20.0225 11.66 19.9925 11.34 19.9525 11.02L22.0625 9.37C22.2525 9.22 22.3025 8.95 22.1825 8.73L20.1825 5.27C20.0625 5.05 19.7925 4.97 19.5725 5.05L17.0825 6.05C16.5625 5.65 16.0025 5.32 15.3925 5.07L15.0125 2.42C14.9825 2.18 14.7725 2 14.5225 2H10.5225C10.2725 2 10.0625 2.18 10.0325 2.42L9.65254 5.07C9.04254 5.32 8.48254 5.66 7.96254 6.05L5.47254 5.05C5.24254 4.96 4.98254 5.05 4.86254 5.27L2.86254 8.73C2.73254 8.95 2.79254 9.22 2.98254 9.37L5.09254 11.02C5.05254 11.34 5.02254 11.67 5.02254 12C5.02254 12.33 5.05254 12.66 5.09254 12.98L2.98254 14.63C2.79254 14.78 2.74254 15.05 2.86254 15.27L4.86254 18.73C4.98254 18.95 5.25254 19.03 5.47254 18.95L7.96254 17.95C8.48254 18.35 9.04254 18.68 9.65254 18.93L10.0325 21.58C10.0625 21.82 10.2725 22 10.5225 22H14.5225C14.7725 22 14.9825 21.82 15.0125 21.58L15.3925 18.93C16.0025 18.68 16.5625 18.34 17.0825 17.95L19.5725 18.95C19.8025 19.04 20.0625 18.95 20.1825 18.73L22.1825 15.27C22.3025 15.05 22.2525 14.78 22.0625 14.63L19.9525 12.98ZM12.5225 15.5C10.5925 15.5 9.02254 13.93 9.02254 12C9.02254 10.07 10.5925 8.5 12.5225 8.5C14.4525 8.5 16.0225 10.07 16.0225 12C16.0225 13.93 14.4525 15.5 12.5225 15.5Z" fill="#0492C2"/>
</svg>
