<svg width="25" height="24" viewBox="0 0 25 24" fill="none" xmlns="http://www.w3.org/2000/svg">
<path fill-rule="evenodd" clip-rule="evenodd" d="M22.2322 7.99542L13.5211 3.24771C12.9019 2.91743 12.1588 2.91743 11.5395 3.24771L2.82848 7.99542C2.106 8.38762 2.106 9.41973 2.82848 9.81193L11.5395 14.5596C12.1588 14.8899 12.9019 14.8899 13.5211 14.5596L22.2322 9.81193C22.934 9.41973 22.934 8.38762 22.2322 7.99542ZM11.5395 16.6239L5.30552 13.2179V16.1284C5.30552 16.8922 5.71837 17.5734 6.37892 17.945L11.5395 20.7523C12.1587 21.0826 12.9019 21.0826 13.5211 20.7523L18.6817 17.945C19.3422 17.5734 19.7551 16.8716 19.7551 16.1284V13.2179L13.5211 16.6239C12.9019 16.9541 12.1587 16.9541 11.5395 16.6239Z" fill="#0492C2"/>
</svg>
