<svg width="30" height="31" viewBox="0 0 30 31" fill="none" xmlns="http://www.w3.org/2000/svg">
<path d="M16.2502 24.3745L16.2502 10.412L22.3502 16.512C22.8377 16.9995 23.6377 16.9995 24.1252 16.512C24.241 16.3964 24.333 16.259 24.3957 16.1078C24.4584 15.9566 24.4907 15.7945 24.4907 15.6308C24.4907 15.4671 24.4584 15.305 24.3957 15.1538C24.333 15.0025 24.241 14.8652 24.1252 14.7495L15.8877 6.51204C15.772 6.39616 15.6347 6.30423 15.4834 6.2415C15.3322 6.17877 15.1701 6.14648 15.0064 6.14648C14.8427 6.14648 14.6806 6.17877 14.5294 6.2415C14.3782 6.30423 14.2408 6.39616 14.1252 6.51204L5.88767 14.7495C5.77194 14.8653 5.68014 15.0027 5.61751 15.1539C5.55488 15.3051 5.52264 15.4671 5.52264 15.6308C5.52264 15.7945 5.55488 15.9565 5.61751 16.1077C5.68014 16.2589 5.77194 16.3963 5.88767 16.512C6.00339 16.6278 6.14078 16.7196 6.29199 16.7822C6.44319 16.8448 6.60526 16.8771 6.76892 16.8771C6.93258 16.8771 7.09464 16.8448 7.24585 16.7822C7.39705 16.7196 7.53444 16.6278 7.65017 16.512L13.7502 10.412L13.7502 24.3745C13.7502 25.062 14.3127 25.6245 15.0002 25.6245C15.6877 25.6245 16.2502 25.062 16.2502 24.3745Z" fill="#098EAC"/>
</svg>
